<svg width="256" height="256" xmlns="http://www.w3.org/2000/svg">
 <!-- Created with Method Draw - http://github.com/duopixel/Method-Draw/ -->
 <g>
  <title>background</title>
  <rect fill="none" id="canvas_background" height="258" width="258" y="-1" x="-1"/>
  <g display="none" overflow="visible" y="0" x="0" height="100%" width="100%" id="canvasGrid">
   <rect fill="url(#gridpattern)" stroke-width="0" y="0" x="0" height="100%" width="100%"/>
  </g>
 </g>
 <g>
  <title>Layer 1</title>
  <path fill-opacity="0" stroke="#7f0000" d="m16.751018,224.71788c0,-0.5 0,-0.999985 0.597734,-1.499985c0.597734,-0.5 0.711471,-1.94075 1.793207,-3.499969c1.34173,-1.933975 3.23312,-5.388138 4.781888,-7.999924c1.430366,-2.412125 2.390937,-4.999954 3.58641,-7.499939c1.195469,-2.499969 2.988678,-5.999939 4.781888,-9.499908c1.793205,-3.499969 4.898903,-7.94577 7.172829,-11.499893c1.892029,-2.957214 3.866195,-6.665955 6.575093,-9.999908c2.151434,-2.647858 4.781879,-5.999954 6.575093,-7.999939c1.7932,-1.999969 4.184138,-3.999954 7.172825,-6.499939c2.988678,-2.499969 5.225902,-4.672241 8.368302,-6.499939c2.861598,-1.664383 4.701711,-3.104416 8.368302,-4.999954c4.099364,-2.119278 9.563766,-4.499954 13.150176,-5.999939c3.586419,-1.499985 6.056862,-2.784729 8.368302,-3.499969c2.507118,-0.775787 4.792071,-1.793777 7.770561,-1.999985c3.623504,-0.250854 7.77057,-1.499985 10.759249,-2.499985c2.988678,-0.999985 4.803454,-1.310883 5.977356,-1.499985c3.160824,-0.509186 6.016895,-0.831161 9.563766,-1.499985c4.24506,-0.800491 6.96213,-2.486237 9.563766,-2.999969c1.163505,-0.229752 3.013386,-0.923607 5.379633,-1.499985c3.629643,-0.884125 6.680114,-2.30349 9.563766,-3.499969c3.122344,-1.295517 6.020862,-2.940926 8.966043,-4.499962c3.642284,-1.92804 5.512761,-2.861961 7.770561,-4.499954c1.915825,-1.389885 4.218008,-2.45874 5.977356,-3.499969c2.439779,-1.443924 4.957377,-3.363228 7.17282,-5.499954c1.958182,-1.888611 4.000276,-3.205437 5.977356,-5.499947c1.563032,-1.81398 3.19562,-3.852692 4.184151,-4.999954c1.563014,-1.81398 2.039211,-4.201973 4.184151,-6.499947c1.040447,-1.114677 2.506963,-2.944244 4.184151,-5.499947c1.286344,-1.960136 1.558308,-3.58783 2.988669,-5.999947c1.548767,-2.611801 3.233125,-4.888138 4.781892,-7.499931c1.430361,-2.412117 3.247444,-4.401173 4.781892,-7.499931c1.446687,-2.921535 2.75379,-5.587807 4.184151,-7.999928c1.548767,-2.611794 3.104686,-4.444241 4.781874,-6.999939c1.286344,-1.960133 2.479236,-4.471664 3.58641,-6.999935c0.650149,-1.484653 2.083867,-2.911854 2.390946,-3.999962c0.411987,-1.459862 0.4604,-2.013359 0.597741,-2.499981c0.307079,-1.088116 0.597741,-1.499985 0.597741,-1.999981c0,-0.499994 0.274664,-1.026741 0,-1.999981c-0.307079,-1.088118 -0.597741,-1.499987 -0.597741,-2.499977c0,-0.499996 0,-0.99999 0,-1.999983l0,0.499996l0,0.99999l0.597741,0.99999" id="svg_6" stroke-width="12" fill="#000000"/>
  <ellipse ry="20" rx="20" id="svg_8" cy="208.468029" cx="27.750909" stroke-opacity="null" stroke-width="8" stroke="#000" fill="#ffffff"/>
  <ellipse ry="20" rx="20" id="svg_10" cy="132.46872" cx="123.750038" stroke-opacity="null" stroke-width="8" stroke="#000" fill="#ffffff"/>
  <ellipse ry="20" rx="20" id="svg_11" cy="37.96957" cx="228.249089" stroke-opacity="null" stroke-width="8" stroke="#000" fill="#ffffff"/>
  <line stroke="#ff0000" stroke-linecap="null" stroke-linejoin="null" id="svg_12" y2="151.718539" x2="112.250139" y1="201.718091" x1="52.250688" stroke-width="8" fill="none"/>
  <line stroke="#ff0000" stroke-linecap="null" stroke-linejoin="null" id="svg_13" y2="114.718871" x2="138.749905" y1="46.219499" x1="206.249299" stroke-width="8" fill="none"/>
 </g>
</svg>